<svg id="Layer_1" data-name="Layer 1" xmlns="http://www.w3.org/2000/svg" viewBox="0 0 2000 699.001"><title>Plonk_Logo-Horizontal</title><path d="M693.5809,234.92H589.328v229.815h68.191V402.7738h36.0619c59.3386,0,93.435-31.4727,93.435-86.2219C787.0159,264.4256,752.92,234.92,693.5809,234.92Zm-3.2787,115.4H657.519V287.3744h32.7832c20.326,0,32.1291,11.1468,32.1291,31.1448C722.4313,339.1729,710.6282,350.32,690.3022,350.32Z"/><polygon points="881.433 234.92 813.242 234.92 813.242 464.735 977.817 464.735 977.817 407.691 881.433 407.691 881.433 234.92"/><path d="M1113.54,232.9529c-72.1253,0-125.2345,49.1756-125.2345,116.7112,0,67.8628,53.1092,118.0223,125.2345,118.0223s125.2347-50.4873,125.2347-118.0223C1238.7746,282.4563,1185.6637,232.9529,1113.54,232.9529Zm.9837,177.6887c-30.1619,0-56.3895-25.8986-56.3895-60.65s25.9-59.9946,56.39-59.9946c30.16,0,54.4207,25.2434,54.4207,59.9946S1144.6839,410.6416,1114.5236,410.6416Z"/><polygon points="1420.064 363.433 1322.695 234.92 1264.34 234.92 1264.34 464.735 1326.957 464.735 1326.957 336.878 1424.325 464.735 1482.354 464.735 1482.354 234.92 1420.064 234.92 1420.064 363.433"/><polygon points="1661.676 328.354 1744.948 234.92 1666.267 234.92 1589.225 323.436 1589.225 234.92 1521.034 234.92 1521.034 464.735 1589.225 464.735 1589.225 409.658 1615.124 380.808 1668.562 464.735 1750.193 464.735 1661.676 328.354"/><path d="M374.1505,476.677A124.1653,124.1653,0,0,0,498.1752,352.6521V285.7537H374.5371V223.9624H312.6742v61.8628h61.4763v61.7916h62.1619v5.0353a62.1618,62.1618,0,1,1-124.3235,0c0-1.6585.0825-3.32.2117-4.964H250.233c-.0655,1.6555-.1069,3.3126-.1069,4.964A124.165,124.165,0,0,0,374.1505,476.677Z"/></svg>